<?xml version="1.0" standalone="no"?>
<!DOCTYPE svg PUBLIC "-//W3C//DTD SVG 20010904//EN"
 "http://www.w3.org/TR/2001/REC-SVG-20010904/DTD/svg10.dtd">
<svg version="1.0" xmlns="http://www.w3.org/2000/svg"
 width="369.000000pt" height="369.000000pt" viewBox="0 0 369.000000 369.000000"
 preserveAspectRatio="xMidYMid meet">
<metadata>
Created by potrace 1.11, written by Peter Selinger 2001-2013
</metadata>
<g transform="translate(0.000000,369.000000) scale(0.100000,-0.100000)"
fill="#000000" stroke="none">
<path d="M1440 3664 c-259 -44 -454 -121 -670 -263 -155 -102 -375 -320 -472
-467 -59 -89 -158 -271 -158 -289 0 -4 -6 -21 -14 -38 -12 -26 -53 -158 -71
-227 -29 -109 -45 -392 -30 -526 74 -650 504 -1176 1120 -1376 181 -58 281
-73 490 -72 205 1 300 13 455 61 222 68 401 162 573 301 l68 55 45 -44 44 -43
-65 -65 c-36 -36 -65 -67 -65 -71 0 -3 27 -32 60 -65 l60 -59 23 22 23 22 99
-103 c55 -56 129 -133 164 -169 l65 -68 -23 -24 -22 -24 60 -63 c33 -34 64
-59 68 -55 5 4 99 98 211 207 l203 200 -39 47 c-22 26 -49 55 -59 65 -19 16
-21 16 -38 -3 -10 -11 -23 -20 -29 -20 -7 0 -83 74 -170 166 l-159 165 23 24
23 24 -63 65 -63 65 -18 -23 c-11 -13 -41 -42 -68 -65 l-49 -41 -43 39 -44 39
31 38 c108 136 176 242 228 356 186 411 204 841 51 1268 -47 131 -171 347
-257 450 -77 91 -211 219 -293 280 -82 60 -263 170 -282 170 -5 0 -21 7 -38
16 -76 40 -252 92 -385 115 -97 16 -411 18 -500 3z m426 -214 c353 -55 651
-218 875 -477 334 -387 430 -894 263 -1383 -15 -41 -29 -77 -33 -80 -3 -3 -27
-46 -53 -97 -66 -128 -127 -211 -238 -326 -178 -186 -392 -313 -648 -383 -212
-58 -486 -59 -697 -4 -38 10 -88 25 -110 33 -22 8 -56 20 -75 27 -50 18 -195
95 -249 133 -65 44 -171 129 -203 163 l-27 29 62 71 c162 186 249 338 310 539
129 430 33 907 -252 1259 -95 116 -91 104 -46 144 266 233 576 353 931 360 66
2 151 -2 190 -8z"/>
</g>
</svg>
