<svg id="Layer_1" data-name="Layer 1" xmlns="http://www.w3.org/2000/svg" viewBox="0 0 1269 184.65"><defs><style>.cls-1{fill:#f7f6fb;}</style></defs><title>boston</title><path class="cls-1" d="M1263.51,266V249.72h-28.17v11H1225V216.28H1196.3v8.57h-5.1v-8.57h-28.66v33.44h-11V229.13H1139.3l-19.61,12.44v7h-14.32v-45.3h-62.92v53.2h-5.6V237.86l-18.78-16.31V211.18H997v8.89l-17.13,16.31V201.91H964.7V154.84H932.2V149h-4V138.64h-4v16.2h-8.35v54.85h-9.39v26.69H893.27v-31L885,182.18v-29H874.44V137.87h-7.81v-5.36h-4.2v5.36h-5.28v13.67h-4v-7.91H830.29l-14.8,14.66v23.88h-8.91V159h-8.27V145.28H760.64V159h-8.26v38H739.2V142.07H685v14.16H651V136h-5.81V124.65h-5v-3.06l-13.66-7.89-13.66,7.89v3.06h-5V136h-6.43v15.4h-7.58V158H587.9V167h-7.16V95.29h-4.32V88H538v7.33h-4.32v34.18H517.65v23.64h-5.93v10.54h-3.45v-9.47l-32.95-13.59v23.06H470v13.51h-3.62V167h-44v10.13h-5.6v60.53L406,231.41V138.64H362v72.69h-5.8V177.7l.37-.54-9.41-13.64H328.33l-9.41,13.64h-.13v14.41H289.14v11.69h-4.28v8.07h-22V222H244.06V131h-5.6v-6.59h-7.08V119.1h-8.32v-6.76h-1.89v6.76h-8.32V131h-6.51v-6.59h-1.15v-2.58h-8.07v2.58h-3.62v-1.59h-8.07v1.59h-.83V131h-3v91.26H165.73v-3.13H161v-5.35H145.25v5.35H138.3v-2.94H134v2.94h-6.7v8.65H108.16v22.65H84.77l-8.4-8.4h-18V231.93h-2.1v-5.46H52v5.46h-2.1v5.85H45.24v-5.85H40v-4.2H27.13v4.2H21.85v3.79H11v36.9H1280V266Zm-67.21-17.46h-5.1V237.2h5.1Z" transform="translate(-10.98 -87.96)"/></svg>
