<svg id="Layer_1" data-name="Layer 1" xmlns="http://www.w3.org/2000/svg" viewBox="0 0 1020.87 148.9"><defs><style>.cls-1{fill:none;stroke:#7e8179;stroke-miterlimit:10;}</style></defs><title>boston</title><path class="cls-1" d="M1043.17,254.64v-5.3h-13.24V236.24H1007.3v8.87H999V209.36h-23v6.88h-4.1v-6.88h-23v26.87h-8.87V219.69h-9.8l-15.76,10v5.62H902.85v-36.4H852.28v42.76h-4.5v-15L832.68,213.6v-8.34H815.74v7.15L802,225.52v-27.7H789.79V160H763.67v-4.72h-3.18V147h-3.18v13H750.6v44.08h-7.55v21.45H732.38V200.63L725.7,182v-23.3h-8.45V146.35H711V142h-3.38v4.31h-4.25v11h-3.2V151H681.77l-11.9,11.79V182h-7.16V163.3h-6.64v-11H625.79v11h-6.64v30.51H608.56V149.72H565v11.38H537.64V144.83H533v-9.1h-4v-2.46l-11-6.34-11,6.34v2.46h-4v9.1h-5.16v12.38h-6.09v5.29H487v7.28h-5.76V112.13h-3.47v-5.89H446.88v5.89h-3.47V139.6H430.5v19h-4.77v8.47H423v-7.61l-26.48-10.92v18.53h-4.24v10.86h-2.91v-8.14H354v8.14h-4.5v48.65l-8.74-5V147H305.4v58.42h-4.66v-27l.3-.43-7.56-11H278.35l-7.56,11h-.1v11.58H246.86v9.4h-3.44v6.49h-17.7V214H210.62V140.79h-4.5v-5.3h-5.69v-4.23h-6.69v-5.43h-1.52v5.43h-6.69v9.53H180.3v-5.3h-.93v-2.07h-6.49v2.07H170v-1.28h-6.49v1.28h-.66v5.3h-2.38v73.34H147.67v-2.51H143.9v-4.3H131.21v4.3h-5.58v-2.36h-3.42v2.36h-5.38v7H101.4v18.2H82.61L75.85,230H61.36v-8.08H59.67v-4.39H56.29v4.39H54.6v4.7H50.83v-4.7H46.59v-3.37H36.28v3.37H32v3H23.3v29.65m952.62-19.33h-4.1v-9.13h4.1Z" transform="translate(-22.8 -105.74)"/></svg>