<svg id="Layer_1" data-name="Layer 1" xmlns="http://www.w3.org/2000/svg" viewBox="0 0 143.25 79.42"><defs><style>.cls-1{font-size:21.88px;}.cls-1,.cls-2,.cls-3{fill:#ee6f7e;}.cls-1,.cls-3{font-family:BebasNeueBold, Bebas Neue;font-weight:700;}.cls-3{font-size:49.42px;}</style></defs><title>logo</title><text class="cls-1" transform="translate(57.34 75.5)">NEU</text><path class="cls-2" d="M148.29,93.89l-1.15.51-1.12.53s-.55-.32-1.13-.59l-1.13-.56L144,95l.22,1.2L142.5,98s.59,0,1.15.12l1.15.17s.23.53.42,1.09l.38,1.09,1.33-2.07,1.23-.06h1.23s-.38-.51-.78-1l-.83-1,.28-1.22Z" transform="translate(-53.37 -85.29)"/><path class="cls-2" d="M136.76,87.5l-.92.86-.89.87s-.62-.12-1.26-.19l-1.25-.15L133.1,90,133.7,91l-1.06,2.24s.56-.17,1.12-.27l1.15-.22s.4.43.75.89l.71.9.57-2.39,1.14-.47,1.16-.41s-.52-.36-1.07-.68l-1.1-.63-.14-1.25Z" transform="translate(-53.37 -85.29)"/><path class="cls-2" d="M123.77,85.29l-.58,1.12-.55,1.12-1.25.22-1.23.29,1,.78c.47.38.92.81.92.81l-.26,2.44,2-1.21,2,1.21-.26-2.44s.45-.42.92-.81l1-.78-1.23-.29-1.25-.22-.55-1.12Z" transform="translate(-53.37 -85.29)"/><path class="cls-2" d="M110.77,87.5l-.18,1.23L110.45,90l-1.1.63c-.54.32-1.07.68-1.07.68l1.16.41,1.14.47.57,2.39.71-.9c.36-.47.75-.89.75-.89l1.15.22c.56.1,1.12.27,1.12.27L113.83,91l.61-1.06.65-1.07-1.25.15c-.63.07-1.26.19-1.26.19l-.89-.87Z" transform="translate(-53.37 -85.29)"/><path class="cls-2" d="M99.24,93.89l.23,1.22.28,1.22-.83,1c-.41.48-.78,1-.78,1h1.23l1.23.06,1.33,2.07.38-1.09c.19-.56.42-1.09.42-1.09l1.15-.17C104.44,98,105,98,105,98l-1.74-1.76.22-1.2.26-1.22-1.13.56c-.57.28-1.13.59-1.13.59l-1.12-.53Z" transform="translate(-53.37 -85.29)"/><text class="cls-3" transform="translate(3.1 54.4)">SE</text><text class="cls-3" transform="translate(80.54 54.4)">rch</text><path class="cls-2" d="M104.5,116.22A13.78,13.78,0,0,0,101,112a13.86,13.86,0,0,0,1.94,19.5,13.89,13.89,0,0,0,1.54-15.25Z" transform="translate(-53.37 -85.29)"/><rect class="cls-2" x="127.86" y="135.46" width="6.03" height="1.86" transform="translate(-110.94 65.96) rotate(-50.69)"/><rect class="cls-2" x="122.84" y="131.35" width="6.03" height="1.86" transform="translate(-109.6 60.57) rotate(-50.69)"/><rect class="cls-2" x="126.02" y="132.02" width="4.69" height="4.62" transform="translate(-110.27 63.26) rotate(-50.69)"/><rect class="cls-2" x="123.17" y="129.86" width="2.19" height="2.24" transform="translate(-109.18 58.86) rotate(-50.69)"/><path class="cls-2" d="M101,111.94a13.84,13.84,0,1,0,4.27-3.49,13.8,13.8,0,0,0-4.27,3.49M124.29,131a16.15,16.15,0,1,1,3-5.68,16.09,16.09,0,0,1-3,5.68" transform="translate(-53.37 -85.29)"/><rect class="cls-2" x="130.32" y="134.29" width="3.01" height="1.86" transform="matrix(0.63, -0.77, 0.77, 0.63, -109.69, 66.27)"/><polygon class="cls-2" points="73.67 44.07 71.76 46.4 73.2 47.58 74.68 45.77 75.11 45.25 73.67 44.07"/><rect class="cls-2" x="127.93" y="131.12" width="2.34" height="4.62" transform="translate(-109.3 63.5) rotate(-50.69)"/><path class="cls-2" d="M125,130.13q-.32.44-.67.87l.84.69.69-.85Z" transform="translate(-53.37 -85.29)"/><path class="cls-2" d="M99.23,110.48l1.78,1.46a13.89,13.89,0,1,1,21.5,17.6l1.78,1.46q.35-.43.67-.87a16.19,16.19,0,0,0-25.73-19.65" transform="translate(-53.37 -85.29)"/></svg>