<svg id="Layer_1" data-name="Layer 1" xmlns="http://www.w3.org/2000/svg" viewBox="0 0 128.79 23.95"><defs><style>.cls-1{fill:#e75454;}.cls-2{fill:#a94151;}</style></defs><title>logo</title><path class="cls-1" d="M31.18,19c3.56,0,5.4,2.13,5.4,5.86v.73H33.11v-1c0-1.67-.67-2.3-1.83-2.3s-1.83.63-1.83,2.3c0,4.8,7.16,5.7,7.16,12.36,0,3.73-1.87,5.86-5.46,5.86S25.68,40.71,25.68,37V35.55h3.46v1.67c0,1.67.73,2.26,1.9,2.26s1.9-.6,1.9-2.26c0-4.8-7.16-5.7-7.16-12.36C25.78,21.12,27.61,19,31.18,19Z" transform="translate(-25.68 -18.89)"/><path class="cls-1" d="M42.37,29.08h5v3.33h-5v6.83H48.7v3.33h-10V19.26h10v3.33H42.37Z" transform="translate(-25.68 -18.89)"/><path class="cls-1" d="M86.1,42.57a7.16,7.16,0,0,1-.33-2.86V36c0-2.17-.73-3-2.4-3H82.1v9.49H78.44V19.26H84c3.8,0,5.43,1.77,5.43,5.36v1.83c0,2.4-.77,4-2.4,4.73,1.83.77,2.43,2.53,2.43,5v3.6a6.87,6.87,0,0,0,.4,2.83Zm-4-20v7.16h1.43c1.37,0,2.2-.6,2.2-2.46V25c0-1.67-.57-2.4-1.87-2.4Z" transform="translate(-25.68 -18.89)"/><path class="cls-1" d="M102.45,33.88V37c0,3.73-1.87,5.86-5.46,5.86S91.53,40.71,91.53,37V24.85C91.53,21.12,93.39,19,97,19s5.46,2.13,5.46,5.86v2.27H99v-2.5c0-1.67-.73-2.3-1.9-2.3s-1.9.63-1.9,2.3V37.21c0,1.67.73,2.26,1.9,2.26s1.9-.6,1.9-2.26V33.88Z" transform="translate(-25.68 -18.89)"/><path class="cls-1" d="M108.35,42.57h-3.66V19.26h3.66v10h4.16v-10h3.73V42.57h-3.73v-10h-4.16Z" transform="translate(-25.68 -18.89)"/><polygon class="cls-1" points="50.17 19.49 49.89 19.84 47.48 17.87 47.76 17.52 47.76 17.52 47.76 17.52 46.79 16.72 45.51 18.29 45.51 18.29 44.22 19.86 45.19 20.66 45.48 20.31 47.89 22.28 47.6 22.63 48.57 23.43 49.86 21.86 51.14 20.28 50.17 19.49"/><path class="cls-1" d="M73,28.72a10.91,10.91,0,0,0-18.57-6.65q-.39.39-.74.81A10.91,10.91,0,0,0,70.12,37.27l.6.49.47-.57.47-.57-.59-.48.11-.17.2-.31q.18-.28.33-.56l.18-.33c.1-.21.2-.41.29-.63l.13-.29c.12-.31.24-.63.33-1A10.88,10.88,0,0,0,73,28.72Zm-1.88,3.73a9.36,9.36,0,0,1-14.91,4.6l0,0A10.86,10.86,0,0,0,58,33.76a9.38,9.38,0,0,0-.7-7,10.34,10.34,0,0,0-2.35-2.89,9.36,9.36,0,0,1,16.22,8.58Z" transform="translate(-25.68 -18.89)"/><path class="cls-2" d="M121.26,42.57h-1.4V19.26h2l7,19.69V19.26h1.4V42.57h-1.7l-7.29-20.79Z" transform="translate(-25.68 -18.89)"/><path class="cls-2" d="M140.78,30v1.4h-6.36v9.73h7.66v1.4h-9.19V19.26h9.19v1.4h-7.66V30Z" transform="translate(-25.68 -18.89)"/><path class="cls-2" d="M146,36.94c0,2.5.93,4.43,3.5,4.43s3.5-1.93,3.5-4.43V19.26h1.43V36.88c0,3.33-1.4,5.9-5,5.9s-5-2.57-5-5.9V19.26H146Z" transform="translate(-25.68 -18.89)"/></svg>