<svg width="62" height="57" viewBox="0 0 62 57" fill="none" xmlns="http://www.w3.org/2000/svg">
<path d="M59.8273 46.8725L59.2001 47.6918L53.802 43.0805L54.4292 42.2612L52.2565 40.3885L49.3895 44.0636L46.5 47.7386L48.6727 49.6112L49.3223 48.792L54.7204 53.4033L54.0708 54.2226L56.2435 56.0952L59.1329 52.4202L62 48.7217L59.8273 46.8725Z" fill="#D41B2C"/>
<path fill-rule="evenodd" clip-rule="evenodd" d="M35.7156 1.5558C45.2761 5.01823 52.0063 13.7443 52.9993 23.9651C53.3503 27.342 53.0561 30.7556 52.1327 34.02C51.916 34.9209 51.6271 35.6999 51.3382 36.4547L51.0253 37.1607C50.8512 37.5909 50.6617 37.9897 50.4691 38.395C50.4219 38.4943 50.3745 38.5939 50.3271 38.6945L49.8938 39.4979C49.6531 39.9524 49.3883 40.4068 49.0994 40.8613L48.6179 41.616L48.3531 42.0299L49.7734 43.1985L48.642 44.5863L47.5105 45.974L46.0661 44.781C39.8779 51.9264 30.3905 55.1904 21.1775 53.3433C11.9646 51.4962 4.42583 44.8188 1.40106 35.8263C-1.62371 26.8338 0.325036 16.8924 6.51321 9.747C7.07493 9.06531 7.66875 8.40797 8.29466 7.77497C15.4775 0.515085 26.1551 -1.90663 35.7156 1.5558ZM33.4994 48.3903C40.7188 46.1378 46.3414 40.3762 48.4736 33.0461H48.5939C51.6328 22.6442 47.0009 11.5177 37.5206 6.446C28.0402 1.37434 16.339 3.76328 9.54658 12.1572C11.838 14.1369 13.7548 16.5209 15.2039 19.1932C17.9305 24.4378 18.5348 30.5488 16.889 36.2355C15.9222 39.1377 14.4641 41.8479 12.5799 44.2453C18.425 49.0864 26.2801 50.6428 33.4994 48.3903Z" fill="#D41B2C"/>
</svg>
