<svg width="194" height="36" viewBox="0 0 194 36" fill="none" xmlns="http://www.w3.org/2000/svg">
<path d="M8.1042 0C13.3498 0 16.0611 3.13575 16.0611 8.62698V9.70167H10.948V8.22949C10.948 5.77095 9.9608 4.84348 8.25155 4.84348C6.5423 4.84348 5.55506 5.77095 5.55506 8.22949C5.55506 15.296 16.1053 16.6209 16.1053 26.4256C16.1053 31.9169 13.3498 35.0526 8.06 35.0526C2.77016 35.0526 0 31.9611 0 26.4993V24.3646H5.09828V26.8231C5.09828 29.2817 6.17393 30.1503 7.89791 30.1503C9.6219 30.1503 10.6975 29.267 10.6975 26.8231C10.6975 19.7567 0.147349 18.4317 0.147349 8.62698C0.147349 3.12102 2.84384 0 8.1042 0Z" fill="#D41B2C"/>
<path d="M24.5102 14.7669H32.0892V19.7744H24.5102V30.0451H34.1052V35.0526H18.9473V0H34.1052V5.00752H24.5102V14.7669Z" fill="#D41B2C"/>
<path fill-rule="evenodd" clip-rule="evenodd" d="M90.5244 30.6992C90.3979 32.1491 90.5655 33.6098 91.0172 34.9926L96.6317 35.0526C96.1386 33.6943 95.9351 32.2468 96.0344 30.8043V25.4C96.0344 21.6921 95.1385 19.05 92.4059 17.8941C94.8399 16.7982 95.9896 14.3963 95.9896 10.7935V8.04634C95.9896 2.65709 93.5557 0 87.8814 0H79.5791V34.8725H85.0443V20.6263H86.9407C89.4344 20.6263 90.5244 21.8722 90.5244 25.1298V30.6992ZM85.0444 15.7174V4.96894L87.6724 5.01398C89.6136 5.01398 90.4648 6.10984 90.4648 8.61682V12.0245C90.4648 14.8167 89.2254 15.7174 87.1797 15.7174H85.0444Z" fill="#D41B2C"/>
<path d="M115.564 22.451V27.1584C115.564 32.7863 112.809 36 107.519 36C102.229 36 99.4736 32.7561 99.4736 27.1584V8.82649C99.4736 3.19866 102.214 0 107.534 0C112.853 0 115.579 3.21375 115.579 8.84158V12.2666H110.481V8.49455C110.481 5.97485 109.405 5.02431 107.681 5.02431C105.957 5.02431 104.881 5.97485 104.881 8.49455V27.4753C104.881 29.995 105.957 30.8852 107.681 30.8852C109.405 30.8852 110.481 29.9799 110.481 27.4753V22.451H115.564Z" fill="#D41B2C"/>
<path d="M124.125 35.0526H118.421V0H124.125V15.0376H130.608V0H136.421V35.0526H130.608V20.015H124.125V35.0526Z" fill="#D41B2C"/>
<path d="M75.2757 29.119L74.8541 29.6461L71.2248 26.6793L71.6464 26.1522L70.1857 24.9474L68.2581 27.3118L66.3154 29.6762L67.7762 30.881L68.2129 30.3539L71.8422 33.3207L71.4055 33.8478L72.8662 35.0526L74.8089 32.6882L76.7365 30.3087L75.2757 29.119Z" fill="#D41B2C"/>
<path fill-rule="evenodd" clip-rule="evenodd" d="M60.1789 0.957951C66.1441 3.08987 70.3433 8.46277 70.9629 14.756C71.1819 16.8352 70.9983 18.9371 70.4221 20.9471C70.2869 21.5018 70.1067 21.9815 69.9264 22.4462L69.7312 22.8809C69.6226 23.1458 69.5043 23.3914 69.3842 23.6409C69.3547 23.702 69.3252 23.7634 69.2956 23.8253L69.0252 24.32C68.875 24.5998 68.7098 24.8797 68.5295 25.1595L68.2291 25.6242L68.0639 25.879L68.9501 26.5986L68.2442 27.4531L67.5382 28.3075L66.637 27.573C62.7759 31.9726 56.8563 33.9823 51.108 32.845C45.3597 31.7077 40.656 27.5962 38.7687 22.0593C36.8814 16.5223 38.0973 10.4012 41.9584 6.00151C42.3089 5.58178 42.6794 5.17703 43.0699 4.78727C47.5515 0.317153 54.2137 -1.17397 60.1789 0.957951ZM58.7961 29.7954C63.3005 28.4085 66.8087 24.8609 68.139 20.3475H68.2141C70.1102 13.9428 67.2202 7.09182 61.305 3.96905C55.3898 0.846287 48.089 2.31722 43.8509 7.4856C45.2806 8.70454 46.4766 10.1724 47.3807 11.8179C49.082 15.0471 49.459 18.8098 48.4322 22.3113C47.8289 24.0983 46.9192 25.767 45.7435 27.2432C49.3905 30.224 54.2916 31.1823 58.7961 29.7954Z" fill="#D41B2C"/>
<path d="M143.199 35.0526H141.158V0H144.073L154.276 29.609V0H156.316V35.0526H153.838L143.213 3.78947L143.199 35.0526Z" fill="black"/>
<path d="M173.253 16.1781V18.287H163.419V32.9437H175.263V35.0526H161.053V0H175.263V2.10888H163.419V16.1781H173.253Z" fill="black"/>
<path d="M180.485 26.3491C180.485 30.0749 181.895 32.9513 185.791 32.9513C189.686 32.9513 191.096 30.0749 191.096 26.3491V0H193.263V26.2597C193.263 31.2225 191.141 35.0526 185.684 35.0526C180.228 35.0526 178.105 31.2225 178.105 26.2597V0H180.485V26.3491Z" fill="black"/>
</svg>
