<?xml version="1.0" encoding="utf-8"?>
<!-- Generator: Adobe Illustrator 16.0.0, SVG Export Plug-In . SVG Version: 6.00 Build 0)  -->
<!DOCTYPE svg PUBLIC "-//W3C//DTD SVG 1.1//EN" "http://www.w3.org/Graphics/SVG/1.1/DTD/svg11.dtd">
<svg version="1.1" id="Layer_1" xmlns="http://www.w3.org/2000/svg" xmlns:xlink="http://www.w3.org/1999/xlink" x="0px" y="0px"
	 width="85px" height="75px" viewBox="0 0 85 75" enable-background="new 0 0 85 75" xml:space="preserve">
<path fill-rule="evenodd" clip-rule="evenodd" fill="none" stroke="#51A8A5" stroke-width="3" stroke-miterlimit="10" d="
	M7.315,6.275C11.979,0.779,30.845,9.788,50.4,27.521C69.819,45.13,84.02,61.002,79.356,66.5s-24.636-3.781-44.609-20.725
	C14.774,28.833,2.651,11.773,7.315,6.275z"/>
<ellipse transform="matrix(-0.6469 0.7626 -0.7626 -0.6469 98.6574 29.9912)" fill-rule="evenodd" clip-rule="evenodd" fill="none" stroke="#51A8A5" stroke-width="3" stroke-miterlimit="10" cx="42.385" cy="37.836" rx="13.053" ry="47.424"/>
<path fill-rule="evenodd" clip-rule="evenodd" fill="none" stroke="#51A8A5" stroke-width="3" stroke-miterlimit="10" d="
	M50.741,45.775C30.768,62.719,10.795,71.998,6.132,66.5c-4.664-5.498,9.536-21.37,28.955-38.979
	C54.644,9.788,73.509,0.779,78.172,6.275C82.837,11.773,70.714,28.833,50.741,45.775z"/>
<ellipse transform="matrix(0.7626 -0.6469 0.6469 0.7626 -14.2425 36.866)" fill-rule="evenodd" clip-rule="evenodd" fill="none" stroke="#51A8A5" stroke-width="3" stroke-miterlimit="10" cx="43.103" cy="37.836" rx="47.424" ry="13.053"/>
</svg>
